# Blender v2.80 (sub 75) OBJ File: ''
# www.blender.org
mtllib temp.mtl
o Mesh1_Model.005
v 0.705666 3.199887 -1.222250
v -0.705666 3.199887 -1.222250
v -0.705666 3.199887 1.222252
v -2.283580 1.570227 2.133254
v -1.141792 2.385067 2.288874
v -1.411334 3.199887 0.000001
v -2.553120 2.385067 -0.155618
v -2.553120 1.881465 -1.474048
v 1.411334 2.385067 -2.133266
v 0.705666 1.570228 -3.044266
v -1.411334 2.385067 -2.133266
v -0.705666 1.570228 -3.044266
v -2.283580 -1.570225 -2.133266
v -2.283580 -0.251797 -2.636866
v -1.141792 0.251797 -3.296066
v 2.283580 -0.251797 -2.636866
v 2.283580 -1.570225 -2.133266
v 1.141792 -2.385053 -2.288887
v 1.141792 0.251797 -3.296066
v 0.000000 -0.563034 -3.451686
v 2.553120 1.881465 -1.474048
v 2.989260 1.570227 0.911012
v 3.425380 0.251797 0.659216
v 3.425380 -0.251797 -0.659214
v 2.553120 2.385067 -0.155618
v 0.705666 3.199887 1.222252
v 1.141792 2.385067 2.288874
v 2.283580 1.570227 2.133254
v -1.141792 -0.251798 3.296074
v 0.000000 0.563036 3.451694
v 0.000000 1.881464 2.948094
v -3.425380 0.251797 0.659216
v -2.283580 0.251797 2.636854
v -2.989260 0.563037 -1.725844
v -2.989260 1.570227 0.911012
v -3.425380 -0.251797 -0.659214
v -2.553120 -2.385053 0.155620
v -1.411334 -3.199893 -0.000000
v 0.000000 -1.881465 -2.948087
v 0.705666 -3.199893 -1.222251
v -0.705666 -3.199893 -1.222251
v 2.553120 -2.385053 0.155620
v 2.989260 -1.570225 -0.911010
v 1.411334 -2.385053 2.133253
v 2.553120 -1.881465 1.474048
v 2.283580 0.251797 2.636854
v 2.989260 -0.563035 1.725846
v 1.141792 -0.251798 3.296074
v -0.705666 -1.570226 3.044274
v -2.989260 -0.563035 1.725846
v -2.553120 -1.881465 1.474048
v 0.705666 -1.570226 3.044274
v -1.411334 -2.385053 2.133253
v -0.705666 -3.199893 1.222251
v 1.411334 -3.199893 -0.000000
v 2.989260 0.563037 -1.725844
v -2.989260 -1.570225 -0.911010
v 1.411334 3.199887 0.000001
v -1.141792 -2.385053 -2.288887
v 0.705666 -3.199893 1.222251
vt 0.253781 0.882724
vt 0.338662 0.729644
vt 0.741440 0.852334
vt 0.975831 0.521996
vt 0.918109 0.749856
vt 0.602675 0.711482
vt 0.666041 0.449191
vt 0.436575 0.307976
vt 0.095011 0.804366
vt 0.007938 0.595332
vt 0.236737 0.483502
vt 0.065947 0.430574
vt 0.350023 0.020725
vt 0.256895 0.081677
vt 0.086858 0.235270
vt 0.064885 0.588081
vt 0.155826 0.498646
vt 0.193226 0.331478
vt 0.000000 0.497026
vt 0.043625 0.297033
vt 0.156647 0.873342
vt 0.448809 0.956707
vt 0.405469 0.844249
vt 0.261646 0.753714
vt 0.327974 0.982004
vt 0.630322 0.987138
vt 0.735759 0.958447
vt 0.634195 0.945849
vt 0.972073 0.519228
vt 0.924932 0.705432
vt 0.896200 0.826751
vt 0.831226 0.167201
vt 1.000000 0.416861
vt 0.433472 0.102855
vt 0.862336 0.364571
vt 0.629989 0.045295
vt 0.661902 0.061877
vt 0.573727 0.130058
vt 0.145449 0.223843
vt 0.340490 0.281632
vt 0.401121 0.146296
vt 0.404321 0.542494
vt 0.267579 0.600622
vt 0.655579 0.523206
vt 0.536526 0.624705
vt 0.681023 0.826727
vt 0.543121 0.772973
vt 0.813893 0.716180
vt 0.882521 0.440844
vt 0.919550 0.219178
vt 0.826223 0.161407
vt 0.794304 0.561289
vt 0.815836 0.277449
vt 0.667974 0.252683
vt 0.439850 0.390008
vt 0.136057 0.759157
vt 0.557714 0.000000
vt 0.403845 1.000000
vt 0.284824 0.098325
vt 0.595582 0.377036
vn 0.0000 1.0000 -0.0000
vn -0.5773 0.7454 0.3333
vn -0.5774 0.7454 0.3333
vn -0.5257 0.7947 -0.3035
vn -0.0000 0.7454 -0.6667
vn -0.5773 0.3333 -0.7454
vn -0.5774 0.3333 -0.7454
vn -0.3568 -0.3333 -0.8727
vn 0.3568 -0.3333 -0.8727
vn -0.0000 0.1876 -0.9822
vn 0.5773 0.3333 -0.7454
vn 0.5774 0.3333 -0.7454
vn 0.9342 0.3333 -0.1273
vn 0.5257 0.7947 -0.3035
vn 0.5774 0.7454 0.3333
vn 0.5773 0.7454 0.3333
vn 0.0000 0.7947 0.6071
vn -0.3568 0.3333 0.8727
vn -0.8506 0.1876 0.4911
vn -0.9342 0.3333 -0.1273
vn -0.9342 -0.3333 0.1273
vn -0.5774 -0.7454 -0.3333
vn -0.5773 -0.7454 -0.3333
vn 0.0000 -0.7947 -0.6071
vn 0.5774 -0.7454 -0.3333
vn 0.5773 -0.7454 -0.3333
vn 0.9342 -0.3333 0.1273
vn 0.5774 -0.3333 0.7454
vn 0.5773 -0.3333 0.7454
vn 0.3568 0.3333 0.8727
vn 0.8506 0.1876 0.4911
vn 0.0000 -0.1876 0.9822
vn -0.5773 -0.3333 0.7454
vn 0.0000 -0.7454 0.6667
vn 0.0000 -1.0000 0.0000
vn 0.5257 -0.7947 0.3035
vn -0.5257 -0.7947 0.3035
vn 0.8506 -0.1876 -0.4911
vn 0.8507 -0.1876 -0.4911
vn -0.8506 -0.1876 -0.4911
vn 0.8507 0.1876 0.4911
vn -0.5774 -0.3333 0.7454
vn -0.8507 -0.1876 -0.4911
usemtl FrontColor.002
s 1
f 1/1/1 2/2/1 3/3/1
f 4/4/2 5/5/3 6/6/2
f 7/7/4 2/2/4 8/8/4
f 1/1/5 9/9/5 10/10/5
f 8/8/6 11/11/7 12/12/7
f 13/13/8 14/14/8 15/15/8
f 16/16/9 17/17/9 18/18/9
f 10/10/10 19/19/10 20/20/10
f 19/19/11 10/10/12 21/21/11
f 22/22/13 23/23/13 24/24/13
f 1/1/14 25/25/14 21/21/14
f 26/26/15 27/27/15 28/28/16
f 26/26/17 3/3/17 5/5/17
f 29/29/18 30/30/18 31/31/18
f 32/32/19 33/33/19 4/4/19
f 34/34/20 35/35/20 8/8/20
f 32/32/21 36/36/21 37/37/21
f 38/38/22 37/37/22 13/13/23
f 39/39/24 40/40/24 41/41/24
f 42/42/25 40/40/25 17/17/26
f 43/43/27 24/24/27 23/23/27
f 44/44/28 45/45/29 46/46/29
f 31/31/30 30/30/30 46/46/30
f 28/28/31 46/46/31 47/47/31
f 48/48/32 29/29/32 49/49/32
f 33/33/33 50/50/33 51/51/33
f 52/52/34 49/49/34 53/53/34
f 54/54/35 38/38/35 41/41/35
f 44/44/36 55/55/36 42/42/36
f 53/53/37 37/37/37 38/38/37
f 56/56/38 24/24/39 43/43/38
f 57/57/40 34/34/40 13/13/40
f 2/2/1 6/6/1 3/3/1
f 3/3/1 26/26/1 58/58/1
f 58/58/1 1/1/1 3/3/1
f 5/5/3 3/3/2 6/6/2
f 6/6/2 7/7/2 4/4/2
f 7/7/2 35/35/2 4/4/2
f 6/6/4 2/2/4 7/7/4
f 2/2/4 11/11/4 8/8/4
f 10/10/5 12/12/5 1/1/5
f 12/12/5 11/11/5 2/2/5
f 1/1/5 12/12/5 2/2/5
f 12/12/7 15/15/6 8/8/6
f 15/15/6 14/14/6 8/8/6
f 14/14/6 34/34/6 8/8/6
f 15/15/8 20/20/8 39/39/8
f 39/39/8 59/59/8 15/15/8
f 59/59/8 13/13/8 15/15/8
f 18/18/9 39/39/9 20/20/9
f 20/20/9 19/19/9 18/18/9
f 19/19/9 16/16/9 18/18/9
f 15/15/10 12/12/10 20/20/10
f 12/12/10 10/10/10 20/20/10
f 9/9/12 21/21/11 10/10/12
f 21/21/11 56/56/11 16/16/11
f 19/19/11 21/21/11 16/16/11
f 24/24/13 56/56/13 22/22/13
f 56/56/13 21/21/13 22/22/13
f 21/21/13 25/25/13 22/22/13
f 21/21/14 9/9/14 1/1/14
f 1/1/14 58/58/14 25/25/14
f 28/28/16 22/22/16 25/25/16
f 25/25/16 58/58/16 28/28/16
f 58/58/16 26/26/15 28/28/16
f 31/31/17 27/27/17 5/5/17
f 27/27/17 26/26/17 5/5/17
f 31/31/18 5/5/18 4/4/18
f 4/4/18 33/33/18 31/31/18
f 33/33/18 29/29/18 31/31/18
f 4/4/19 35/35/19 32/32/19
f 32/32/19 50/50/19 33/33/19
f 34/34/20 36/36/20 32/32/20
f 32/32/20 35/35/20 34/34/20
f 35/35/20 7/7/20 8/8/20
f 36/36/21 57/57/21 37/37/21
f 37/37/21 51/51/21 50/50/21
f 50/50/21 32/32/21 37/37/21
f 57/57/23 13/13/23 37/37/22
f 13/13/23 59/59/22 38/38/22
f 59/59/22 41/41/22 38/38/22
f 41/41/24 59/59/24 39/39/24
f 39/39/24 18/18/24 40/40/24
f 17/17/26 43/43/26 42/42/25
f 42/42/25 55/55/25 40/40/25
f 40/40/25 18/18/26 17/17/26
f 23/23/27 47/47/27 45/45/27
f 45/45/27 42/42/27 23/23/27
f 42/42/27 43/43/27 23/23/27
f 47/47/29 46/46/29 45/45/29
f 46/46/29 48/48/28 44/44/28
f 48/48/28 52/52/28 44/44/28
f 30/30/30 48/48/30 46/46/30
f 46/46/30 28/28/30 31/31/30
f 28/28/30 27/27/30 31/31/30
f 47/47/31 23/23/41 22/22/31
f 22/22/31 28/28/31 47/47/31
f 49/49/32 52/52/32 48/48/32
f 48/48/32 30/30/32 29/29/32
f 51/51/33 53/53/42 33/33/33
f 53/53/42 49/49/42 33/33/33
f 49/49/42 29/29/42 33/33/33
f 53/53/34 54/54/34 52/52/34
f 54/54/34 60/60/34 52/52/34
f 60/60/34 44/44/34 52/52/34
f 41/41/35 40/40/35 54/54/35
f 40/40/35 55/55/35 54/54/35
f 55/55/35 60/60/35 54/54/35
f 42/42/36 45/45/36 44/44/36
f 44/44/36 60/60/36 55/55/36
f 38/38/37 54/54/37 53/53/37
f 53/53/37 51/51/37 37/37/37
f 43/43/38 17/17/38 56/56/38
f 17/17/38 16/16/38 56/56/38
f 36/36/43 34/34/40 57/57/40
f 34/34/40 14/14/40 13/13/40
